/* XPM */
static char *_1a51c9eebcd4b50df77228d1146ed8c2gdftP4E5T35yM0U[] = {
/* columns rows colors chars-per-pixel */
"64 64 5 1 ",
"  c #2F2E2F",
". c #564064",
"X c #3E2F5A",
"o c #39314B",
"O c white",
/* pixels */
"                                                                ",
"    ........................      ............................  ",
"    ........................      ............................  ",
"  ............XX..............  ............XX......XX..........",
"  ............XX..............  ............XX......XX..........",
"  ..XXXX..XXXXXXXX..XXXXXX....  ....XXXX..XXXXXX..XXXXXXXXXXXX..",
"  ..XXXX..XXXXXXXX..XXXXXX....  ....XXXX..XXXXXX..XXXXXXXXXXXX..",
"  XXXXXXXXXXXXooXXXXXXXXoooo..  ..ooooXXXXXXXXXXXXXXXXXXXXooXXXX",
"  XXXXXXXXXXXXooXXXXXXXXoooo..  ..ooooXXXXXXXXXXXXXXXXXXXXooXXXX",
"  oooooooooooooooooooooooooooo  ooooooooooooXXXXoooooooooooooooo",
"  oooooooooooooooooooooooooooo  ooooooooooooXXXXoooooooooooooooo",
"    oooooooooooooooooooooooo      oooooooooooooooooooooooooooo  ",
"    oooooooooooooooooooooooo      oooooooooooooooooooooooooooo  ",
"                                                                ",
"                                                                ",
"..........      ..............................      ............",
"..........      ..............................      ............",
"XX..........  ....................XXXX..........  ............XX",
"XX..........  ....................XXXX..........  ............XX",
"XXXX..XX....  ....XXXX..XXXXXX..XXXXXXXX..XX....  ....XX..XXXXXX",
"XXXX..XX....  ....XXXX..XXXXXX..XXXXXXXX..XX....  ....XX..XXXXXX",
"ooXXXXXXoo..  ..ooXXXXXXXXooXXXXXXooooooXXXXoo..  ..ooXXXXXXXXoo",
"ooXXXXXXoo..  ..ooXXXXXXXXooXXXXXXooooooXXXXoo..  ..ooXXXXXXXXoo",
"XXXXXXoooooo  ooooooXXXXooooooXXXXXXXXXXXXoooooo  ooooooXXXXoooo",
"XXXXXXoooooo  ooooooXXXXooooooXXXXXXXXXXXXoooooo  ooooooXXXXoooo",
"oooooooooooo  ooooooooooooooooooooooXXXXoooooooo  oooooooooooooo",
"oooooooooooo  ooooooooooooooooooooooXXXXoooooooo  oooooooooooooo",
"oooooooooo      oooooooooooooooooooooooooooooo      oooooooooooo",
"oooooooooo      oooooooooooooooooooooooooooooo      oooooooooooo",
"                                                                ",
"                                                                ",
"........................      ........................      ....",
"........................      ........................      ....",
"XX................XX......  ............XX..............  ......",
"XX................XX......  ............XX..............  ......",
"XXXXXX..XXXXXX..XXXXXX....  ....XXXX..XXXXXXXX..XXXX....  ....XX",
"XXXXXX..XXXXXX..XXXXXX....  ....XXXX..XXXXXXXX..XXXX....  ....XX",
"XXXXXXXXXXXXXXooXXXXXXXX..  ..XXXXXXXXXXooXXXXooXXXXXX..  ..XXXX",
"XXXXXXXXXXXXXXooXXXXXXXX..  ..XXXXXXXXXXooXXXXooXXXXXX..  ..XXXX",
"XXXXXXXXooooXXXXooXXXXXXoo  ooXXXXXXXXooooXXXXXXooXXXXoo  ooXXXX",
"XXXXXXXXooooXXXXooXXXXXXoo  ooXXXXXXXXooooXXXXXXooXXXXoo  ooXXXX",
"XXXXXXooooXXXXXXooooXXoooo  ooooXXooooooXXXXooXXXXXXoooo  ooooXX",
"XXXXXXooooXXXXXXooooXXoooo  ooooXXooooooXXXXooXXXXXXoooo  ooooXX",
"XXooooooooooXXoooooooooooo  ooooooooooooooooooooXXoooooo  oooooo",
"XXooooooooooXXoooooooooooo  ooooooooooooooooooooXXoooooo  oooooo",
"oooooooooooooooooooooooo      oooooooooooooooooooooooo      oooo",
"oooooooooooooooooooooooo      oooooooooooooooooooooooo      oooo",
"                                                                ",
"                                                                ",
"..............      ........................      ..............",
"..............      ........................      ..............",
"XX..............  ............XX......XX......  ................",
"XX..............  ............XX......XX......  ................",
"XXXXXX..XXXX....  ....XXXX..XXXXXX..XXXXXX....  ....XXXX..XXXXXX",
"XXXXXX..XXXX....  ....XXXX..XXXXXX..XXXXXX....  ....XXXX..XXXXXX",
"ooXXooXXXXXXoo..  ..ooXXXXXXXXXXXXooXXXXXXoo..  ..ooXXXXXXXXXXXX",
"ooXXooXXXXXXoo..  ..ooXXXXXXXXXXXXooXXXXXXoo..  ..ooXXXXXXXXXXXX",
"ooXXXXXXXXoooooo  ooooooXXooooXXXXXXXXXXoooooo  ooooooXXXXXXXXoo",
"ooXXXXXXXXoooooo  ooooooXXooooXXXXXXXXXXoooooo  ooooooXXXXXXXXoo",
"ooooooXXoooooooo  ooooooooooooooooooXXoooooooo  ooooooooXXoooooo",
"ooooooXXoooooooo  ooooooooooooooooooXXoooooooo  ooooooooXXoooooo",
"oooooooooooooo      oooooooooooooooooooooooo      oooooooooooooo",
"oooooooooooooo      oooooooooooooooooooooooo      oooooooooooooo",
"                                                                "
};
