/* XPM */
static char *c0f3f5b62be642489afae584ddde399bJ3iLldZ6dhwKK8Ft[] = {
/* columns rows colors chars-per-pixel */
"63 63 9 1 ",
"  c None",
". c #222034",
"X c black",
"o c #696A6A",
"O c #929292",
"+ c #494949",
"@ c #363252",
"# c #0C0B12",
"$ c white",
/* pixels */
"                                                               ",
"                                                               ",
"                                                               ",
"                                                               ",
"                                                               ",
"                            ........XX                         ",
"                         ...........XXXX                       ",
"                       ......oooooooXXXXXX                     ",
"                     ......OOoooooooooXXXXXX                   ",
"                    .....OOOooooooooooooXXXXX                  ",
"                   ....OOOOOooooooooooooooXXXX                 ",
"                   ...OOOOOoooooooooooooooooXX                 ",
"                  ...OOOOOOoooooooooooooooooXXX                ",
"                  ...OOOOOoooooooooooooooooooXX                ",
"                 ...OOOOOOoooooooooooooooooooXXX               ",
"                 ...OOOOOoooooooooooooooooooooXX               ",
"                ...OOOOOOoooooooooooooooooooooXX               ",
"                ...OOOOOooooooooooooooooooooooXX               ",
"                ..OOOOOOooooooooooooooooooooooXX               ",
"               ...OOOOOOooooooooooooooooooooooXX               ",
"               ...OOOOOOooooooooooooooooooooooXX               ",
"               ..OO..OOO..oooXXoooooooooooooooXX               ",
"               ..OO..OOo..oooXXoooooooooooooooXX               ",
"               ..OO..OOo..oooXXoooooooooooooooXX               ",
"               ..OO..OOo.XoooXXoooooooooooooooXX               ",
"               ..OO..OOoXXoooXXoooooooooooooooXX               ",
"               ..OO..OOoXXoooXXoooooooooooooooXX               ",
"               ..OO..OOoXXoooXXoooooooooooooooXX               ",
"               ..OO..OOOXXoooXXoooooooooooooooXX               ",
"               ..OOOOOOOOoooooooooooooooooooooXX               ",
"               ..OOOOOOOOoooooooooooooooooooooXX               ",
"               ..OOOOOOOOooooooooooooooooooooXXX               ",
"               ..OOOOOOOOooooooooooooooooooooXX                ",
"               ..OOOOOOOOOooooooooooooooooooXXX                ",
"               ...OOOOOOOOoooooooooooooooooXXX                 ",
"                ....OOOOOOoooooooooooooooXXXX                  ",
"                 ..........XXXXXXoooooooXXXX                   ",
"                  .....XXXXXXXXX++++++++XXXX                   ",
"              ......OOo++++++++++++++ooooXXXXXXXX              ",
"             .......OOooooooooooooooooooXXXXXXXXXX             ",
"            ....@@..OOOooooooooooooooooXXX..#.##XXX            ",
"           ....@@@..OOOooooooooooooooooXX....####XXX           ",
"           ...@@@@..OOooooooooooooooooXXX...######XX           ",
"           ..@@@@@..OOooooooooooooooooXX...#.#####XX           ",
"           ..@@@@@..OOooooooooooooooooXX.#..######XX           ",
"           ..@@@@@..OOOoooooooooooooooXX#.########XX           ",
"           ...@@@@..OOooooooooooooooooXXX#########XX           ",
"           ....@@@..OOOoooooooooooooooXXX########XXX           ",
"            .........OOooooooooooooooooXXX######XXXX           ",
"             .........OOoooooooooooooooXXXXXXXXXXXX            ",
"                    ....XXXXXXXXXXXXXXXXXXXXXXXXXX             ",
"                     ...XXXXXXXXXXXXXXXX                       ",
"                     ..OOoooXXoooooo++XX                       ",
"                     ..OOoooXXoooooo++XX                       ",
"                     ..OOooo..oooooo++XX                       ",
"                     ..OOooo..oooooo++XX                       ",
"                     ..OOooo..oooooo++XX                       ",
"                     ..OOooo..oooooo++XX                       ",
"                     ...OOoo..oooooo++XX                       ",
"                      ..OOoo..ooooo+++XX                       ",
"                      .........ooo+++XXX                       ",
"                       ............XXXX                        ",
"                              .....XXX                         "
};
