/* XPM */
static char *_f7f651c4464487dc59e4b813554e219jPIXeeJbF0mREmLM[] = {
/* columns rows colors chars-per-pixel */
"32 32 17 1 ",
"  c #3E3C42",
". c #C63322",
"X c #BF9751",
"o c #E8E88F",
"O c #B8AC8C",
"+ c #CDC8BE",
"@ c #B7B680",
"# c white",
"$ c #FEC3BD",
"% c #F63E2F",
"& c #E2907E",
"* c #E30B0E",
"= c #CAA585",
"- c #A37D61",
"; c #CAC5A2",
": c #BF7D3E",
"> c #F3C84C",
/* pixels */
"         ..............         ",
"        .XooooooooooooX.        ",
"       .XooooooooooooooX.       ",
"      .XoooOooooooooooooX.      ",
"     .Xoooo++@ooooooo@@ooX.     ",
"    .Xoooo@#$+ooooo@+#@oooX.    ",
"   .Xooooo@#%#@oooo+$#@ooooX.   ",
"  .Xooooooo+&$Oooo@#*#@oooooX.  ",
" .Xoooooooo@##OoooO#&+oooooooX. ",
".Xoo@@@@oooo=X==XX-##@ooooooooX.",
".ooo@###+@oX=+--++;==oooo@@oooo.",
".oooo+$*&#=;-::::::O;Xo@+##+Ooo.",
".oooo@+###=O:>>>>>>:-==#&%$+ooo.",
".oooooo@O-;:>oooooo>:+X#$#+@ooo.",
".ooooooooX+:>oooooo>:-=OO@ooooo.",
".ooooooooX+:>oooooo>:-=oooooooo.",
".oooooooo=-:>oooooo>:+Xoooooooo.",
".ooooo@OO=-:>oooooo>:+Xoooooooo.",
".ooo@+#$#X+:>oooooo>:;-O@oooooo.",
".ooo+$%&#==-:>>>>>>:O=###+@oooo.",
".ooO+##+@oX;O::::::-;=#&*$+oooo.",
".oooo@@oooo==;++--+=Xo@+###@ooo.",
".Xoooooooo@##-XX==X=oooo@@@@ooX.",
" .Xooooooo+&#OoooO##@ooooooooX. ",
"  .Xooooo@#*#@oooO$&+oooooooX.  ",
"   .Xoooo@#$+oooo@#%#@oooooX.   ",
"    .Xooo@#+@ooooo+$#@ooooX.    ",
"     .Xoo@@ooooooo@++ooooX.     ",
"      .XooooooooooooOoooX.      ",
"       .XooooooooooooooX.       ",
"        .XooooooooooooX.        ",
"         ..............         "
};
