/* XPM */
static char *_c5960b131cd439ab2a7300cf00147a7zv2cxcKPuhm4rKAV[] = {
/* columns rows colors chars-per-pixel */
"32 32 8 1 ",
"  c None",
". c #78736D",
"X c #8F897B",
"o c #B3B09F",
"O c #5E5D5D",
"+ c #504F52",
"@ c #3E3C42",
"# c white",
/* pixels */
"....... ............... ........",
"XXXXXXX.XXXXXXXXXXXXXXX.XXXXXXXX",
"XXXXXXX.XXXXXXXXXXXXXXX.XXXXXXXX",
"XXXXXXX.XXXXXXXXXXXXXXX.XXXXXXXX",
"XXXXXXXXXXXXXXXXXXXXXXXXXXXXXXXX",
"XXXXXXXXXXXXXXXXXXXXXXXXXXXXXXXX",
"XXXXXXoXoXXXXXXXXXXXXXoXoXXXXXXX",
"oooooooooooooooooooooooXoooooooo",
"XXXXXXXOXXXXXXXXXXXXXXXOXXXXXXXX",
"XXXXXXXOXXXXXXXXXXXXXXXOXXXXXXXX",
"XXXXXXXOXXXXXXXXXXXXXXXOXXXXXXXX",
"XXXXXXXOXXXXXXXXXXXXXXXOXXXXXXXX",
"OOOOOOOOOOOOOOOOOOOOOOOOOOOOOOOO",
".ooooooooooo..O..ooooooooooo..O.",
".XXXXXXXXXXXX.O.XXXXXXXXXXXXX.O.",
".XXXXXXXXXXXXXOXXXXXXXXXXXXXXXOX",
".XXXXXXXXXXXXXOXXXXXXXXXXXXXXXOX",
"++++++++++++++++++++++++++++++++",
"OOXXXOO+OOXXXXXXXXXXXOO+OOXXXXXX",
"OO....O+O.............O+O.......",
"OO.....+...............+........",
"OO.....+...............+........",
"++++++++++++++++++++++++++++++++",
"OOOXXXXXXXXXOO+OOXXXXXXXXXXXOO+O",
"OOO..........O+O.............O+O",
"OOO...........+...............+.",
"OOO...........+...............+.",
"@@@@@@@@@@@@@@@@@@@@@@@@@@@@@@@@",
"++++.++@++...........++@++......",
"++++OO+@+OOOOOOOOOOOOO+@+OOOOOOO",
"++++OOO@OOOOOOOOOOOOOOO@OOOOOOOO",
"++++OOO@OOOOOOOOOOOOOOO@OOOOOOOO"
};
