/* XPM */
static char *_d1764e39e694c1dfde6c1165dd0d696i2dxs51HqJYET9Wd[] = {
/* columns rows colors chars-per-pixel */
"32 32 6 1 ",
"  c None",
". c #6C3B4F",
"X c #FBFCAA",
"o c #FFCE00",
"O c #F29546",
"+ c white",
/* pixels */
"                                ",
"                                ",
"            ........            ",
"          ..XXXXXXXX..          ",
"        ..XXooooooooXX..        ",
"       .XXooOOOOOOOOooXX.       ",
"      .XooOOooooooooOOooX.      ",
"     .XooOooooooooooooOooX.     ",
"    .XooOooooooooooooooOooX.    ",
"    .ooOoooooooXoXooooooOoo.    ",
"   .XooOooooooXoXoXoooooOooX.   ",
"   .ooOooooooXoooooXoooooOoo.   ",
"  .XooOooooooOooOOoOoooooOooX.  ",
"  .ooooooooooOoOooOOooooooooo.  ",
"  .ooooooooooOooXoooooooooooo.  ",
"  .oooooOOooooOooXooooOOooooo.  ",
"  .oooooXXoooooOooXoooXXooooo.  ",
"  .oooooooooooooOooXooooooooo.  ",
"  .ooooooooooXXooOoOooooooooo.  ",
"  .OooXooooooOoXXOoOoooooXooO.  ",
"   .ooXooooooOoooooOoooooXoo.   ",
"   .OooXooooooOoOoOoooooXooO.   ",
"    .ooXoooooooOoOooooooXoo.    ",
"    .OooXooooooooooooooXooO.    ",
"     .OooXooooooooooooXooO.     ",
"      .OooXXooooooooXXooO.      ",
"       .OOooXXXXXXXXooOO.       ",
"        ..OOooooooooOO..        ",
"          ..OOOOOOOO..          ",
"            ........            ",
"                                ",
"                                "
};
