/* XPM */
static char *_86d0994d54c440cd5db4af22633c55a2CngJ0GMDDmYwQT6[] = {
/* columns rows colors chars-per-pixel */
"64 64 16 1 ",
"  c None",
". c #531831",
"X c #782B3E",
"o c #783B4D",
"O c #5B536A",
"+ c #A23F4C",
"@ c #AF6E6E",
"# c #C85159",
"$ c #CE9678",
"% c #A27680",
"& c #7F85A1",
"* c #AAA5B0",
"= c #CFB5BB",
"- c #F1CDAC",
"; c #D0CBD6",
": c #F6EFD0",
/* pixels */
"                                                                ",
"                                                                ",
"                              .......                           ",
"                             .XXXXXXX.                          ",
"                            .XXXXX++XX.                         ",
"                           .XXXXX+##+XXO                        ",
"                          .XXXXX+####+X&O                       ",
"                         .XXXXX+#####+&&&O                      ",
"                        .XXXXX+#####+&****O                     ",
"                       .XXXXX+#####+&**;;;*O                    ",
"                      .XXXXX+#####+&*;;;;;;*O                   ",
"                     .XXXXX+#####+&*;;;;;;;;*O                  ",
"                    .XXXXX+#####+&*;;;;;;;;;;*O                 ",
"                   .XXXXX+#####+&*;;;;;;;;;;;;*O                ",
"                  .XXXXX+#####+&*;;;;;**;;;;;;;*O               ",
"                 .XXXXX+#####+&*;;;;;*$$*;;;;;;;*O              ",
"                .XXXXX+#####+&*;;;;;*$--$*;;;;;;;*O             ",
"               .XXXXX+#####+&******;*$::$*;*****;;*O    @@@@@   ",
"              .XXXXX+#####+&**$$$$@**$::$**@$$$$*;;*O  @$----@  ",
"             .XXXXX+#####+&**$::-$@@$-::-$@@$-::$*;;*O@$--$@@   ",
"            .XXXXX+#####+&**$::--@--::::::--@--::$*;;*@$-$@     ",
"           .XXXXX+#####+&*;*$:--@@-::::::::-@@--:$*;;*$--$@@@@@ ",
"          .XXXXX+#####+&*;;*$--@::$--------$::@--$*;;*$--$@$---@",
"         .XXXXX+#####+&*;;;*$$@@:--$$$$$$$$--:@@$$*;;*$--@$-$@@ ",
"        .XXXXX+#####+&*;;;;*@@$-$-$-:----:-$-$-$@@*;;*$-:@--@   ",
"       .XXXXX+#####+&*;;;;;;*@-:-$--::::::--$-:-@*;;;*$-:$-:@   ",
"      .XXXXX+#####+&*;;;;;***$::-$-:--@@--:-$-::$***;*$-:$-:-@  ",
"     .XXXXX+#####+&*;;;;;*$$$-::-$-:-@--@-:-$-::-$$$**$-:$-::@  ",
"    .XXXXX+#####+&*;;;;;*$-:::::-$-:@-$$-@:-$-:::::-$*$-:$-:-@  ",
"   .XXXXX+#####+&*;;;;;;*$-:::::-$-:@-$$-@:-$-:::::-$*$-:$--@   ",
"  .XXXXX+#####+&*;;;;;;;;*$$$-::-$-:-@--@-:-$-::-$$$**$-:$-@    ",
" .XXXXX+#####+&*;;;;;;;;;;***$::-$-:--@@--::$-::$***;*$--$@     ",
".+++XX+#####+&*;;;;;;;;;;;;;*@-:-$--::::::--$-:-@*;;;*$--@      ",
".+%%+X+####+&*;;;;;;;;;;;;;*@@$-$-$-:------$-$--@@*;;*$-$@      ",
".+%%%+X++++&*;;;;;;;;;;;;;;*$$@@:--$$$$$$$$--:@@$$*;;*$$@       ",
".+%%%%+X++&*;;;;;;;;;;;;;;;*$--@::$--------$::@--$*;*&$$@       ",
".+%%==%+.&**;;;;;;;;;;;;;;;*$:--@@-::::::::-@@--:$**&O$@        ",
" .%=%==.X&**;;;;;;;;;;;;;;;*$::--@--::::::-$@--::$*&O@@         ",
"  .%=%.XXX&**;;;;;;;;;;;;;;;*$::-$@@$-::-$@@$-::$*&O            ",
"   .%.++XXX&*;;;;;;;;;;****;;*$$$$@**$::$**@$$$$*&O             ",
"    .++++XXX&*;;;;;;;;*$$$$*;;*****;*$::$*;*****&O              ",
"   .+##+++XXX&*;;;;;;*$-::-$*;;;;;;;*$--$*;;;;*&O               ",
"  .+####+++X.*&*;;;;;*$-:::$*;;;;;;;;*$$*;;;;*&O                ",
" .+######++.=%*&*;;;;*$-:::$*;;;;;;;;;**;;;;*&O                 ",
".+++++###+.%==%*&*;;;*@$---$*;;;;;;;;;;;;;;*&O                  ",
" ....+##+.%=%==%*&*;;;*@$$$*;;;;;;;;;;;;;;*&O                   ",
"    .+#+. O%=%==%*&*;;;****;;;;;;;;;;;;;;*&O                    ",
"    .++.   O%=%==%*&*;;;;;;;;;;;;;;;;;;;*&O                     ",
"    .+.     O%=%==%*&*;;;;;;;;;;;;;;;;;*&O                      ",
"     .       O%=%==%*&*;;;;;;;;;;;;;;;*&O                       ",
"              O%=%==%*&**;;;;;;;;;;;;*&O                        ",
"               O%=%==%*&&************&O@                        ",
"                O%=%=@@---::::::::----$@                        ",
"                 O%=@$$----::::::---$@@                         ",
"                 oO@$--$$$$$$$$$$$$@@                           ",
"                  o@-$@@@@$------$@                             ",
"                   @-@=@$--$$---$@                              ",
"                   @-@%@-$@@@$$$@                               ",
"                   @-@O@-@%%%@@@                                ",
"                    @ o@-@%%%o                                  ",
"                       @-@ooo                                   ",
"                        @                                       ",
"                                                                ",
"                                                                "
};
