/* XPM */
static char *d6e376d88ad64e9099bf7c3fe76b2cd4FiphsxbMdvbArL49[] = {
/* columns rows colors chars-per-pixel */
"64 64 29 1 ",
"  c white",
". c #580AFF",
"X c #580AFF",
"o c #510BF1",
"O c #3012B4",
"+ c #3012B4",
"@ c #580AFF",
"# c #3711C2",
"$ c #8E28FF",
"% c #3012B4",
"& c #3012B4",
"* c #8F2CF7",
"= c #872AF1",
"- c #430ED8",
"; c #540BF7",
": c #4317C2",
"> c #6320D8",
", c #3012B4",
"< c #4E0CEC",
"1 c #3012B4",
"2 c #3012B4",
"3 c #3012B4",
"4 c #9A2FFF",
"5 c None",
"6 c #6411FF",
"7 c #580AFF",
"8 c #9A2FFF",
"9 c #580AFF",
"0 c white",
/* pixels */
"  .              X               .                              ",
"  .               X..            .                              ",
" ..               .             ...                             ",
" ..              ...           .. .                          ...",
"                 ..X.          .  .                         ....",
"                  .. ..           .                        .... ",
"   .               ....                                    ...  ",
"    .              ....                                   ...   ",
"     .   . .       ..                                   .....   ",
"     . .. .....     ..                                  ...     ",
"        ...   .      . .                               ...      ",
"         .                                        .    ...      ",
"         .            ..   oooOooOoo+            ..  ....       ",
"                        +oooOO@o@@oOooo+         .  ..          ",
"                      ++oo#O##o#OoO#Ooooo+        ..            ",
"          .           oooo$$o$OO%&OOOOOOoO        ..            ",
"         ...         o$oo$@o**=oo%%%%OO#OO+   XX.               ",
"X.                  oo@@#o-%;&;o=;o%%%OO#Ooo XXX.              X",
".XX.               ooo@#:>->#::;*;;O%%%OOOoo+XX..            XX.",
"....              oooo@:-##:>#-#&;*o%%,%O#O#o<...          X....",
" ... X.          oO@#1OO#--%-->-:,%&;,%%%%OOoo+.           .....",
"     .. X.       Oo@#:O%O%%%X+XX>>,2&+%,+%-OO@+        X.  ..   ",
"     .. ..       oo###O,%,+33+++X>>-,+,2+%%OOoo        ..       ",
"        ..      oo#:#O%%%+%,2 33+X4X 333%%%%#O@+       ..       ",
"                O1#OOO+%+,33   3++X4X333+%%%%#o+                ",
"                o##OO%+%3 3        4X  3 3%-OO#@                ",
"               oo#OO-%3%          XX4  323%OOO#o+               ",
"               O@#O#X+2,   3   3   X4  333%%&#Ooo               ",
"               OoO#%%%33           4X3   2%,&##@+               ",
"               OO##%%%33    3     X4      3,O#o$X               ",
"               5#O-%%,  3 3      44X    3 2%%OO@o               ",
"         .    Xo#%%%++2,        4X       3,%#O*@@ X            .",
"      . ...   .OO%%%%*33   444        3  ,,,&#$#@X X.     .     ",
"....... ..    .OO%-%3*3  XXXX         ,  2,,Oo$O@.X..     .. ...",
"   ...  .  .   #O-%%**33X44         3   ,,,&O*6@@....     ......",
"  .....  ...   O#-%-=O 3X4X     4   3   2,,;oo;o@ ....    ......",
"  ..........   OO-%==&3 443     4     2222;=$&:o+               ",
"       ...     OO%%o=&,X4X      X4    2227**@#oo+               ",
"               o#%%oO&XX4X 3     4X  221187@#6@o+               ",
"                @-o=&,,44X3      X4  8178&##6@@@                ",
"              . o%o==%-4X43   3  XX4X8171&#:o@oo                ",
"             ...O%ooOO->>+,  3   2--6##11#:@@oo+      X.        ",
"        X. ....  -o==&,>>-3  2     XX4>>->#@oOO  ...  ..        ",
"     XX......    o#o#O-:>233  2 22 -,--2>O7o#Oo     .... XX.    ",
"   . ......      o#oOO&:--,   , 3222,-2--o@oOOo      ... ..X. X.",
"XXX.....          9@@=##:--,32,,, 222&#&&@OOoo        ......XXXX",
"XX......          .o@o-#:##,,2222,&2&&&;;Oo@o            ....XXX",
"....            X. .@@$##:#&,&,1&,1&;772OOoo                ....",
"...             ...  @=o#:#O#&&11;1;;7&%oOo                  ...",
"              X....   o@o@@O;&@&;;;oO#ooo@                      ",
"            XX....    oo@o#:#oOoOoooooo#++         .            ",
"           XX....       ooo@@6@@@#O##OX+X.       .. .           ",
"          XXX..            ooO@:##6#o    X.       ...  .        ",
"       .. .X..                          . .       ...   .       ",
"       .. ....                          ..X.      ..            ",
"         . ..        X.         .         XX.      .            ",
"        ....         ..         .        .XXX.       .          ",
"       .....         ..        ..         XXX.       ..    .    ",
"      ......                    .         .X..        ....      ",
"     .....         X.           .         ....         ....     ",
"    ....           X.           .          ..           . .. .  ",
"   ....            ..           .                      ... .. . ",
"  ...             X..           ..                      .....  .",
" ....            XX.          .X..                        .....X"
};
