/* XPM */
static char *_4139952c82a4816ec14e81edafae0c5wHMJrIhEUBbqogXP[] = {
/* columns rows colors chars-per-pixel */
"32 32 3 1 ",
"  c #3E3C42",
". c #2F2D32",
"X c white",
/* pixels */
"                                ",
"                                ",
"                                ",
"                                ",
"                                ",
"                                ",
"                                ",
"                                ",
"                                ",
"              .                 ",
"                                ",
"              .                 ",
"                                ",
"              .                 ",
"                                ",
"              .                 ",
"   .......................  .   ",
"     .                .         ",
"     .                .         ",
"     .                .         ",
"     .                .         ",
"     .                .         ",
"     .                .         ",
"     .                .         ",
"   .....................        ",
"              .                 ",
"              .                 ",
"              .                 ",
"              .                 ",
"                                ",
"                                ",
"                                "
};
