/* XPM */
static char *_d0e9a7e80d444d0d5299c6593bc13c60NFGouB5q7LXrmA5[] = {
/* columns rows colors chars-per-pixel */
"32 32 10 1 ",
"  c #3E3C42",
". c #1D181E",
"X c #7784A2",
"o c #B572B1",
"O c #432F53",
"+ c #5F5F7B",
"@ c #AE0000",
"# c #FFF9D6",
"$ c #5C436F",
"% c #2F2D32",
/* pixels */
"                                ",
"                                ",
"                                ",
"                                ",
"                                ",
"             .     .            ",
"            .X.   .X.           ",
"            .oO...Oo.           ",
"            .oXOXO+o.           ",
"            O..+XX..O           ",
"            O.@.X.@.O           ",
"         OOOO.OoX+O.OOOO        ",
"        OoooO..#.#..OoooO       ",
"       Oo+OO.+$.$.$$.OO+oO      ",
"      OoO$$O.++$$$$+.O$$OoO     ",
"      O+O$OO.X++$++X.OO$O+O     ",
"   %%Oo+$OO.%.XXXXX.%.OO$+oO%   ",
"    OOoOOO.  .XX.XX.  .OOOoOO   ",
"   Ooo+$O.   .$. .$.  %.OO+ooO  ",
"    Oo+$.    .$. .$.  % .O+oO   ",
"    O+O+.     .   .   % .+O+O   ",
"    O+OO.             % .OO+O   ",
"   OO+O.              %  .$+OO  ",
"   .$+O.              %  .$+$.  ",
"   .$$O.%%%%%%%%%%%%%%%% .OO$.  ",
"    .O.       %           .$.   ",
"     ..       %           ..    ",
"              %                 ",
"              %                 ",
"                                ",
"                                ",
"                                "
};
