/* XPM */
static char *result[] = {
/* columns rows colors chars-per-pixel */
"16 16 12 1 ",
"  c None",
". c #584422",
"X c #62643A",
"o c #81734A",
"O c #897C52",
"+ c #726D42",
"@ c #59542B",
"# c #584422",
"$ c #78A46A",
"% c #D4D29B",
"& c #5E8549",
"* c white",
/* pixels */
"  .X#######o.   ",
"  X#$$%$%%%#o   ",
"  #$##$$$$$%#   ",
"  #$#%#$$$$$#   ",
"  #&#%#$$&&&#   ",
"  #&#%&&&%###   ",
"  #&&%%##%#$#   ",
"  #&#%%#$%%%#   ",
"  #&#%%%%%%#O   ",
"  +###&&###%#   ",
"  #%%#&&&$#%#   ",
"  #%%#&&&$##o   ",
"  o##&&&&$#..   ",
"  ..#&&####.    ",
"   .###@.##.    ",
"   .##......    "
};
