/* XPM */
static char *_bce5c20714645719828eb782a938059URGgcAZT8ICPLPc4[] = {
/* columns rows colors chars-per-pixel */
"32 32 10 1 ",
"  c #510000",
". c #1D181E",
"X c #7784A2",
"o c #B572B1",
"O c #432F53",
"+ c #5F5F7B",
"@ c #AE0000",
"# c #FFF9D6",
"$ c #5C436F",
"% c white",
/* pixels */
"OOOOOOOOOOOOOOOOOOOOOOOOOOOOOOOO",
"OOOOOOOOOOOOOOOOOOOOOOOOOOOOOOOO",
"OOOOOOOOOOOOOOOOOOOOOOOOOOOOOOOO",
"OOOOOOOOOOOOOOOOOOOOOOOOOOOOOOOO",
"OOOOOOOOOOOOOOOOOOOOOOOOOOOOOOOO",
"OOOOOOOOOOOOO.OOOOO.OOOOOOOOOOOO",
"OOOOOOOOOOOO.X.OOO.X.OOOOOOOOOOO",
"OOOOOOOOOOOO.oO...Oo.OOOOOOOOOOO",
"OOOOOOOOOOOO.oXOXO+o.OOOOOOOOOOO",
"OOOOOOOOOOOOO..+XX..OOOOOOOOOOOO",
"OOOOOOOOOOOOO.@.X.@.OOOOOOOOOOOO",
"OOOOOOOOOOOOO.OoX+O.OOOOOOOOOOOO",
"OOOOOOOOOoooO..#.#..OoooOOOOOOOO",
"OOOOOOOOo+OO.+$.$.$$.OO+oOOOOOOO",
"OOOOOOOoO$$O.++$$$$+.O$$OoOOOOOO",
"OOOOOOO+O$OO.X++$++X.OO$O+OOOOOO",
"OOO..Oo+$OO...XXXXX...OO$+oO.OOO",
"OOOOOOoOOO.OO.XX.XX.OO.OOOoOOOOO",
"OOOOoo+$O.OOO.$.O.$.OO..OO+ooOOO",
"OOOOOo+$.OOOO.$.O.$.OO.O.O+oOOOO",
"OOOOO+O+.OOOOO.OOO.OOO.O.+O+OOOO",
"OOOOO+OO.OOOOOOOOOOOOO.O.OO+OOOO",
"OOOOO+O.OOOOOOOOOOOOOO.OO.$+OOOO",
"OOO.$+O.OOOOOOOOOOOOOO.OO.$+$.OO",
"OOO.$$O.................O.OO$.OO",
"OOOO.O.OOOOOOO.OOOOOOOOOOO.$.OOO",
"OOOOO..OOOOOOO.OOOOOOOOOOO..OOOO",
"OOOOOOOOOOOOOO.OOOOOOOOOOOOOOOOO",
"OOOOOOOOOOOOOO.OOOOOOOOOOOOOOOOO",
"OOOOOOOOOOOOOOOOOOOOOOOOOOOOOOOO",
"OOOOOOOOOOOOOOOOOOOOOOOOOOOOOOOO",
"OOOOOOOOOOOOOOOOOOOOOOOOOOOOOOOO"
};
