/* XPM */
static char *result[] = {
/* columns rows colors chars-per-pixel */
"64 64 5 1 ",
"  c #2F2E2F",
". c #85578E",
"X c #564064",
"o c #3E2F5A",
"O c white",
/* pixels */
"                                                                ",
"   ........................      ............................   ",
"   ........................      ............................   ",
" ............XX......XX......  ................XX.............. ",
" ............XX......XX......  ................XX.............. ",
" ....XXXX..XXXXXX..XXXXXX....  ....XXXX..XXXXXXXXXXXX..XXXX.... ",
" ....XXXX..XXXXXX..XXXXXX....  ....XXXX..XXXXXXXXXXXX..XXXX.... ",
" ..ooXXXXXXXXXXXXooXXXXXXoo..  ..ooXXXXXXXXXXXXooXXooXXXXXXoo.. ",
" ..ooXXXXXXXXXXXXooXXXXXXoo..  ..ooXXXXXXXXXXXXooXXooXXXXXXoo.. ",
" ooooooXXooooXXXXXXXXXXoooooo  ooooooXXXXXXXXooooXXXXXXXXoooooo ",
" ooooooXXooooXXXXXXXXXXoooooo  ooooooXXXXXXXXooooXXXXXXXXoooooo ",
" ooooooooooooooooooXXoooooooo  ooooooooXXooooooooooooXXoooooooo ",
" ooooooooooooooooooXXoooooooo  ooooooooXXooooooooooooXXoooooooo ",
"   oooooooooooooooooooooooo      oooooooooooooooooooooooooooo   ",
"   oooooooooooooooooooooooo      oooooooooooooooooooooooooooo   ",
"                                                                ",
"                                                                ",
"...........      ............................      .............",
"...........      ............................      .............",
".............  ............XX......XX..........  ............XX.",
".............  ............XX......XX..........  ............XX.",
"X..XXXXXX....  ....XXXX..XXXXXX..XXXXXXXXXXXX..  ..XXXX..XXXXXXX",
"X..XXXXXX....  ....XXXX..XXXXXX..XXXXXXXXXXXX..  ..XXXX..XXXXXXX",
"XXXXXXXoooo..  ..ooooXXXXXXXXXXXXXXXXXXXXooXXXX  XXXXXXXXXXXXooX",
"XXXXXXXoooo..  ..ooooXXXXXXXXXXXXXXXXXXXXooXXXX  XXXXXXXXXXXXooX",
"ooooooooooooo  ooooooooooooXXXXoooooooooooooooo  ooooooooooooooo",
"ooooooooooooo  ooooooooooooXXXXoooooooooooooooo  ooooooooooooooo",
"ooooooooooo      oooooooooooooooooooooooooooo      ooooooooooooo",
"ooooooooooo      oooooooooooooooooooooooooooo      ooooooooooooo",
"                                                                ",
"                                                                ",
".............................      ......................      .",
".............................      ......................      .",
".................XXXX..........  ............XXXX..........  ...",
".................XXXX..........  ............XXXX..........  ...",
".XXXX..XXXXXX..XXXXXXXX..XX....  ....XX..XXXXXXXXXX..XX....  ...",
".XXXX..XXXXXX..XXXXXXXX..XX....  ....XX..XXXXXXXXXX..XX....  ...",
"oXXXXXXXXooXXXXXXooooooXXXXoo..  ..ooXXXXXXXXooooXXXXXXoo..  ..o",
"oXXXXXXXXooXXXXXXooooooXXXXoo..  ..ooXXXXXXXXooooXXXXXXoo..  ..o",
"oooXXXXooooooXXXXXXXXXXXXoooooo  ooooooXXXXooooXXXXXXoooooo  ooo",
"oooXXXXooooooXXXXXXXXXXXXoooooo  ooooooXXXXooooXXXXXXoooooo  ooo",
"oooooooooooooooooooXXXXoooooooo  oooooooooooooooooooooooooo  ooo",
"oooooooooooooooooooXXXXoooooooo  oooooooooooooooooooooooooo  ooo",
"ooooooooooooooooooooooooooooo      oooooooooooooooooooooo      o",
"ooooooooooooooooooooooooooooo      oooooooooooooooooooooo      o",
"                                                                ",
"                                                                ",
".......      ........................      .....................",
".......      ........................      .....................",
".XX......  ............XX..............  ......XX...............",
".XX......  ............XX..............  ......XX...............",
"XXXXX....  ....XXXX..XXXXXXXX..XXXX....  ....XXXXXXXX..XXXXXX..X",
"XXXXX....  ....XXXX..XXXXXXXX..XXXX....  ....XXXXXXXX..XXXXXX..X",
"XXXXXXX..  ..XXXXXXXXXXooXXXXooXXXXXX..  ..XXXXooXXXXXXXXXXXXooX",
"XXXXXXX..  ..XXXXXXXXXXooXXXXooXXXXXX..  ..XXXXooXXXXXXXXXXXXooX",
"oXXXXXXoo  ooXXXXXXXXooooXXXXXXooXXXXoo  ooXXXXXXooXXXXooooXXXXo",
"oXXXXXXoo  ooXXXXXXXXooooXXXXXXooXXXXoo  ooXXXXXXooXXXXooooXXXXo",
"oooXXoooo  ooooXXooooooXXXXooXXXXXXoooo  ooooXXXXXXXXooooXXXXXXo",
"oooXXoooo  ooooXXooooooXXXXooXXXXXXoooo  ooooXXXXXXXXooooXXXXXXo",
"ooooooooo  ooooooooooooooooooooXXoooooo  ooooooXXooooooooooXXooo",
"ooooooooo  ooooooooooooooooooooXXoooooo  ooooooXXooooooooooXXooo",
"ooooooo      oooooooooooooooooooooooo      ooooooooooooooooooooo",
"ooooooo      oooooooooooooooooooooooo      ooooooooooooooooooooo",
"                                                                "
};
